<svg xmlns="http://www.w3.org/2000/svg" version="1.1" xmlns:xlink="http://www.w3.org/1999/xlink" width="160" height="160"><svg width="160" height="160" viewBox="0 0 160 160" fill="none" xmlns="http://www.w3.org/2000/svg">
<path d="M0 62C0 27.7583 27.7583 0 62 0H98C132.242 0 160 27.7583 160 62V98C160 132.242 132.242 160 98 160H62C27.7583 160 0 132.242 0 98V62Z" fill="white"></path>
<path d="M18.88 90.424C17.6 88.824 16.608 86.904 15.904 84.664C15.2 82.424 14.848 80.376 14.848 78.52C14.848 75.704 15.584 73.176 17.056 70.936C18.592 68.696 20.672 66.936 23.296 65.656C25.92 64.376 28.992 63.736 32.512 63.736H84.736V73.24H33.952C31.264 73.24 29.12 73.816 27.52 74.968C25.984 76.056 25.216 77.88 25.216 80.44C25.216 81.592 25.472 82.808 25.984 84.088C26.496 85.368 27.104 86.552 27.808 87.64L18.88 90.424ZM32.32 115L37.312 71.128H48.832L43.84 115H32.32ZM60.064 115V71.128H71.584V115H60.064ZM94.6803 115V47.8H107.16V104.44H142.296V115H94.6803Z" fill="#2A7AE2"></path>
</svg><style>@media (prefers-color-scheme: light) { :root { filter: none; } }
@media (prefers-color-scheme: dark) { :root { filter: invert(100%); } }
</style></svg>