<svg width="128" height="68" viewBox="0 0 128 68" fill="none" xmlns="http://www.w3.org/2000/svg">
<path d="M4.032 42.624C2.752 41.024 1.76 39.104 1.056 36.864C0.352 34.624 4.17233e-07 32.576 4.17233e-07 30.72C4.17233e-07 27.904 0.736 25.376 2.208 23.136C3.744 20.896 5.824 19.136 8.448 17.856C11.072 16.576 14.144 15.936 17.664 15.936H69.888V25.44H19.104C16.416 25.44 14.272 26.016 12.672 27.168C11.136 28.256 10.368 30.08 10.368 32.64C10.368 33.792 10.624 35.008 11.136 36.288C11.648 37.568 12.256 38.752 12.96 39.84L4.032 42.624ZM17.472 67.2L22.464 23.328H33.984L28.992 67.2H17.472ZM45.216 67.2V23.328H56.736V67.2H45.216ZM79.8323 67.2V7.62939e-06H92.3123V56.64H127.448V67.2H79.8323Z" fill="#2A7AE2"/>
</svg>
